<?xml version="1.0" encoding="UTF-8" standalone="no"?>
<svg
   class="w-full h-auto"
   viewBox="0 0 250 250"
   preserveAspectRatio="xMidYMid"
   version="1.1"
   id="svg168"
   sodipodi:docname="logo.svg"
   width="250"
   height="250"
   inkscape:version="1.4 (86a8ad7, 2024-10-11)"
   inkscape:export-filename="logo.png"
   inkscape:export-xdpi="300"
   inkscape:export-ydpi="300"
   xmlns:inkscape="http://www.inkscape.org/namespaces/inkscape"
   xmlns:sodipodi="http://sodipodi.sourceforge.net/DTD/sodipodi-0.dtd"
   xmlns="http://www.w3.org/2000/svg"
   xmlns:svg="http://www.w3.org/2000/svg">
  <sodipodi:namedview
     id="namedview168"
     pagecolor="#ffffff"
     bordercolor="#000000"
     borderopacity="0.25"
     inkscape:showpageshadow="2"
     inkscape:pageopacity="0.0"
     inkscape:pagecheckerboard="0"
     inkscape:deskcolor="#d1d1d1"
     inkscape:zoom="3.6415999"
     inkscape:cx="56.156636"
     inkscape:cy="112.99978"
     inkscape:window-width="3440"
     inkscape:window-height="1369"
     inkscape:window-x="-8"
     inkscape:window-y="-8"
     inkscape:window-maximized="1"
     inkscape:current-layer="layer1"
     showgrid="true">
    <inkscape:grid
       id="grid3"
       units="px"
       originx="0"
       originy="0"
       spacingx="1"
       spacingy="1"
       empcolor="#0099e5"
       empopacity="0.30196078"
       color="#0099e5"
       opacity="0.14901961"
       empspacing="5"
       enabled="true"
       visible="true" />
  </sodipodi:namedview>
  <defs
     id="defs1">
    <inkscape:path-effect
       effect="bspline"
       id="path-effect25"
       is_visible="true"
       lpeversion="1.3"
       weight="33.333333"
       steps="2"
       helper_size="0"
       apply_no_weight="true"
       apply_with_weight="true"
       only_selected="false"
       uniform="false" />
    <inkscape:path-effect
       effect="bspline"
       id="path-effect15"
       is_visible="true"
       lpeversion="1.3"
       weight="33.333333"
       steps="2"
       helper_size="0"
       apply_no_weight="true"
       apply_with_weight="true"
       only_selected="false"
       uniform="false" />
    <inkscape:path-effect
       effect="bspline"
       id="path-effect13"
       is_visible="true"
       lpeversion="1.3"
       weight="33.333333"
       steps="2"
       helper_size="0"
       apply_no_weight="true"
       apply_with_weight="true"
       only_selected="false"
       uniform="false" />
    <inkscape:path-effect
       effect="bspline"
       id="path-effect12"
       is_visible="true"
       lpeversion="1.3"
       weight="33.333333"
       steps="2"
       helper_size="0"
       apply_no_weight="true"
       apply_with_weight="true"
       only_selected="false"
       uniform="false" />
    <inkscape:path-effect
       effect="bspline"
       id="path-effect11"
       is_visible="true"
       lpeversion="1.3"
       weight="33.333333"
       steps="2"
       helper_size="0"
       apply_no_weight="true"
       apply_with_weight="true"
       only_selected="false"
       uniform="false" />
    <inkscape:path-effect
       effect="bspline"
       id="path-effect10"
       is_visible="true"
       lpeversion="1.3"
       weight="33.333333"
       steps="2"
       helper_size="0"
       apply_no_weight="true"
       apply_with_weight="true"
       only_selected="false"
       uniform="false" />
    <inkscape:path-effect
       effect="bspline"
       id="path-effect9"
       is_visible="true"
       lpeversion="1.3"
       weight="33.333333"
       steps="2"
       helper_size="0"
       apply_no_weight="true"
       apply_with_weight="true"
       only_selected="false"
       uniform="false" />
    <inkscape:path-effect
       effect="bspline"
       id="path-effect8"
       is_visible="true"
       lpeversion="1.3"
       weight="33.333333"
       steps="2"
       helper_size="0"
       apply_no_weight="true"
       apply_with_weight="true"
       only_selected="false"
       uniform="false" />
    <inkscape:path-effect
       effect="bspline"
       id="path-effect7"
       is_visible="true"
       lpeversion="1.3"
       weight="33.333333"
       steps="2"
       helper_size="0"
       apply_no_weight="true"
       apply_with_weight="true"
       only_selected="false"
       uniform="false" />
    <inkscape:path-effect
       effect="bspline"
       id="path-effect6"
       is_visible="true"
       lpeversion="1.3"
       weight="33.333333"
       steps="2"
       helper_size="0"
       apply_no_weight="true"
       apply_with_weight="true"
       only_selected="false"
       uniform="false" />
    <inkscape:path-effect
       effect="bspline"
       id="path-effect5"
       is_visible="true"
       lpeversion="1.3"
       weight="33.333333"
       steps="2"
       helper_size="0"
       apply_no_weight="true"
       apply_with_weight="true"
       only_selected="false"
       uniform="false" />
    <inkscape:path-effect
       effect="bspline"
       id="path-effect4"
       is_visible="true"
       lpeversion="1.3"
       weight="33.333333"
       steps="2"
       helper_size="0"
       apply_no_weight="true"
       apply_with_weight="true"
       only_selected="false"
       uniform="false" />
    <inkscape:path-effect
       effect="bspline"
       id="path-effect168"
       is_visible="true"
       lpeversion="1.3"
       weight="33.333333"
       steps="2"
       helper_size="0"
       apply_no_weight="true"
       apply_with_weight="true"
       only_selected="false"
       uniform="false" />
    <clipPath
       id="plot-area-clip">
      <rect
         x="10"
         y="5"
         width="335"
         height="255"
         id="rect1" />
    </clipPath>
    <inkscape:path-effect
       effect="bspline"
       id="path-effect168-9"
       is_visible="true"
       lpeversion="1.3"
       weight="33.333333"
       steps="2"
       helper_size="0"
       apply_no_weight="true"
       apply_with_weight="true"
       only_selected="false"
       uniform="false" />
    <inkscape:path-effect
       effect="bspline"
       id="path-effect168-8"
       is_visible="true"
       lpeversion="1.3"
       weight="33.333333"
       steps="2"
       helper_size="0"
       apply_no_weight="true"
       apply_with_weight="true"
       only_selected="false"
       uniform="false" />
    <inkscape:path-effect
       effect="bspline"
       id="path-effect168-8-5"
       is_visible="true"
       lpeversion="1.3"
       weight="33.333333"
       steps="2"
       helper_size="0"
       apply_no_weight="true"
       apply_with_weight="true"
       only_selected="false"
       uniform="false" />
    <inkscape:path-effect
       effect="bspline"
       id="path-effect4-9"
       is_visible="true"
       lpeversion="1.3"
       weight="33.333333"
       steps="2"
       helper_size="0"
       apply_no_weight="true"
       apply_with_weight="true"
       only_selected="false"
       uniform="false" />
    <inkscape:path-effect
       effect="bspline"
       id="path-effect4-9-8"
       is_visible="true"
       lpeversion="1.3"
       weight="33.333333"
       steps="2"
       helper_size="0"
       apply_no_weight="true"
       apply_with_weight="true"
       only_selected="false"
       uniform="false" />
    <inkscape:path-effect
       effect="bspline"
       id="path-effect6-5"
       is_visible="true"
       lpeversion="1.3"
       weight="33.333333"
       steps="2"
       helper_size="0"
       apply_no_weight="true"
       apply_with_weight="true"
       only_selected="false"
       uniform="false" />
    <inkscape:path-effect
       effect="bspline"
       id="path-effect6-5-7"
       is_visible="true"
       lpeversion="1.3"
       weight="33.333333"
       steps="2"
       helper_size="0"
       apply_no_weight="true"
       apply_with_weight="true"
       only_selected="false"
       uniform="false" />
    <inkscape:path-effect
       effect="bspline"
       id="path-effect13-5"
       is_visible="true"
       lpeversion="1.3"
       weight="33.333333"
       steps="2"
       helper_size="0"
       apply_no_weight="true"
       apply_with_weight="true"
       only_selected="false"
       uniform="false" />
    <inkscape:path-effect
       effect="bspline"
       id="path-effect11-7"
       is_visible="true"
       lpeversion="1.3"
       weight="33.333333"
       steps="2"
       helper_size="0"
       apply_no_weight="true"
       apply_with_weight="true"
       only_selected="false"
       uniform="false" />
    <inkscape:path-effect
       effect="bspline"
       id="path-effect15-6"
       is_visible="true"
       lpeversion="1.3"
       weight="33.333333"
       steps="2"
       helper_size="0"
       apply_no_weight="true"
       apply_with_weight="true"
       only_selected="false"
       uniform="false" />
    <inkscape:path-effect
       effect="bspline"
       id="path-effect12-1"
       is_visible="true"
       lpeversion="1.3"
       weight="33.333333"
       steps="2"
       helper_size="0"
       apply_no_weight="true"
       apply_with_weight="true"
       only_selected="false"
       uniform="false" />
    <inkscape:path-effect
       effect="bspline"
       id="path-effect25-3"
       is_visible="true"
       lpeversion="1.3"
       weight="33.333333"
       steps="2"
       helper_size="0"
       apply_no_weight="true"
       apply_with_weight="true"
       only_selected="false"
       uniform="false" />
  </defs>
  <defs
     id="defs2">
    <clipPath
       id="grid-area-clip">
      <path
         d="M 345,5 V 260 H 10 v -8.638 l 30.455,-4.957 30.454,-7.45 30.455,-11.035 30.454,-13.837 30.455,-18.938 30.454,-25.648 30.455,-34.405 L 253.636,89.31 284.091,28.778 293.18,5"
         id="path1" />
    </clipPath>
  </defs>
  <g
     inkscape:groupmode="layer"
     id="layer3"
     inkscape:label="surrounding"
     style="display:none">
    <ellipse
       style="display:inline;fill:none;stroke:#000000;stroke-width:0.924579"
       id="path3"
       cx="125.00001"
       cy="124.99998"
       rx="124.53772"
       ry="124.5377" />
    <path
       style="fill:none;stroke:#000000;stroke-width:1;stroke-dasharray:none"
       d="m 125.00001,249.53767 c 0,-83.02513 0,-166.050259 0,-249.07538973"
       id="path4"
       inkscape:path-effect="#path-effect4"
       inkscape:original-d="m 125.00001,249.53767 c 0,-83.02513 0,-166.050259 0,-249.07538973" />
    <path
       style="fill:none;stroke:#000000;stroke-width:1;stroke-dasharray:none"
       d="M 125,250 C 160.92849,187.53819 196.85698,125.07639 232.78547,62.614584"
       id="path11"
       inkscape:path-effect="#path-effect11"
       inkscape:original-d="M 125,250 C 160.92849,187.53819 196.85698,125.07639 232.78547,62.614584"
       sodipodi:nodetypes="cc" />
    <path
       style="fill:none;stroke:#000000;stroke-width:1;stroke-dasharray:none"
       d="m 125,250 c 35.92157,-20.96117 71.84315,-41.92235 107.76472,-62.88352"
       id="path12"
       inkscape:path-effect="#path-effect12"
       inkscape:original-d="m 125,250 c 35.92157,-20.96117 71.84315,-41.92235 107.76472,-62.88352"
       sodipodi:nodetypes="cc" />
    <path
       style="fill:none;stroke:#000000;stroke-width:1;stroke-dasharray:none"
       d="M 125,250 C 145.57346,172.27933 166.14692,94.558652 186.72038,16.83798"
       id="path13"
       inkscape:path-effect="#path-effect13"
       inkscape:original-d="M 125,250 C 145.57346,172.27933 166.14692,94.558652 186.72038,16.83798"
       sodipodi:nodetypes="cc" />
    <path
       style="fill:none;stroke:#000000;stroke-width:1;stroke-dasharray:none"
       d="m 125,250 c 41.51258,-41.66667 83.02515,-83.33335 124.53773,-125.00002"
       id="path15"
       inkscape:path-effect="#path-effect15"
       inkscape:original-d="m 125,250 c 41.51258,-41.66667 83.02515,-83.33335 124.53773,-125.00002" />
    <path
       style="fill:none;stroke:#000000;stroke-width:1;stroke-dasharray:none"
       d="M 125,250 C 160.92849,187.53819 196.85698,125.07639 232.78547,62.614584"
       id="path11-8"
       inkscape:path-effect="#path-effect11-7"
       inkscape:original-d="M 125,250 C 160.92849,187.53819 196.85698,125.07639 232.78547,62.614584"
       sodipodi:nodetypes="cc"
       transform="matrix(-1,0,0,1,250,0)" />
    <path
       style="fill:none;stroke:#000000;stroke-width:1;stroke-dasharray:none"
       d="m 125,250 c 35.92157,-20.96117 71.84315,-41.92235 107.76472,-62.88352"
       id="path12-9"
       inkscape:path-effect="#path-effect12-1"
       inkscape:original-d="m 125,250 c 35.92157,-20.96117 71.84315,-41.92235 107.76472,-62.88352"
       sodipodi:nodetypes="cc"
       transform="matrix(-1,0,0,1,250,0)" />
    <path
       style="fill:none;stroke:#000000;stroke-width:1;stroke-dasharray:none"
       d="M 125,250 C 145.57346,172.27933 166.14692,94.558652 186.72038,16.83798"
       id="path13-2"
       inkscape:path-effect="#path-effect13-5"
       inkscape:original-d="M 125,250 C 145.57346,172.27933 166.14692,94.558652 186.72038,16.83798"
       sodipodi:nodetypes="cc"
       transform="matrix(-1,0,0,1,250,0)" />
    <path
       style="display:inline;fill:none;stroke:#000000;stroke-width:1;stroke-dasharray:none"
       d="m 125,250 c 41.51258,-41.66667 83.02515,-83.33335 124.53773,-125.00002"
       id="path15-7"
       inkscape:path-effect="#path-effect15-6"
       inkscape:original-d="m 125,250 c 41.51258,-41.66667 83.02515,-83.33335 124.53773,-125.00002"
       transform="matrix(-1,0,0,1,250,0)" />
  </g>
  <g
     inkscape:groupmode="layer"
     id="layer2"
     inkscape:label="sub"
     style="display:none">
    <path
       style="fill:none;stroke:#000000;stroke-width:0.924579"
       id="path3-5-7"
       sodipodi:type="arc"
       sodipodi:cx="250"
       sodipodi:cy="249.53769"
       sodipodi:rx="124.53772"
       sodipodi:ry="124.5377"
       sodipodi:start="3.1415731"
       sodipodi:end="6.2831244"
       sodipodi:open="true"
       sodipodi:arc-type="arc"
       d="M 125.46228,249.54012 A 124.53772,124.5377 0 0 1 249.99499,124.99999 124.53772,124.5377 0 0 1 374.53772,249.5301" />
    <path
       style="fill:none;stroke:#000000;stroke-width:0.924579"
       id="path3-5-7-2"
       sodipodi:type="arc"
       sodipodi:cx="187.22697"
       sodipodi:cy="141.41246"
       sodipodi:rx="124.53772"
       sodipodi:ry="124.5377"
       sodipodi:start="3.9415605"
       sodipodi:end="4.8392452"
       sodipodi:arc-type="slice"
       d="M 100.45784,52.077375 A 124.53772,124.5377 0 0 1 202.98302,17.875482 L 187.22697,141.41246 Z" />
    <path
       style="display:inline;fill:none;stroke:#000000;stroke-width:0.924579"
       id="path3-5-7-2-5"
       sodipodi:type="arc"
       sodipodi:cx="233"
       sodipodi:cy="187"
       sodipodi:rx="124.53772"
       sodipodi:ry="124.5377"
       sodipodi:start="5.7097047"
       sodipodi:end="0.40102314"
       sodipodi:arc-type="slice"
       d="M 337.61388,119.43094 A 124.53772,124.5377 0 0 1 347.65716,235.6146 L 233,187 Z" />
    <path
       style="fill:none;stroke:#000000;stroke-width:0.924579"
       id="path3-5"
       sodipodi:type="arc"
       sodipodi:cx="125"
       sodipodi:cy="249.53769"
       sodipodi:rx="124.53772"
       sodipodi:ry="124.5377"
       sodipodi:start="3.1415731"
       sodipodi:end="6.2831244"
       sodipodi:open="true"
       sodipodi:arc-type="arc"
       d="M 0.4622803,249.54012 A 124.53772,124.5377 0 0 1 124.99499,124.99999 124.53772,124.5377 0 0 1 249.53772,249.5301" />
    <path
       style="fill:none;stroke:#000000;stroke-width:0.579"
       d="m 125.00001,249.53767 c 0,-83.02513 0,-166.050259 0,-249.07538973"
       id="path4-4"
       inkscape:path-effect="#path-effect4-9"
       inkscape:original-d="m 125.00001,249.53767 c 0,-83.02513 0,-166.050259 0,-249.07538973"
       transform="rotate(-90,125.00002,124.99996)" />
    <path
       style="fill:#000000;stroke:#000000;stroke-width:1;stroke-dasharray:none"
       d="m 125,250 c 77.47738,-21.1057 154.95477,-42.21141 232.43215,-63.31711"
       id="path25"
       inkscape:path-effect="#path-effect25"
       inkscape:original-d="m 125,250 c 77.47738,-21.1057 154.95477,-42.21141 232.43215,-63.31711" />
    <path
       style="display:inline;fill:#000000;stroke:#000000;stroke-width:1;stroke-dasharray:none"
       d="m 125,250 c 77.47738,-21.1057 154.95477,-42.21141 232.43215,-63.31711"
       id="path25-1"
       inkscape:path-effect="#path-effect25-3"
       inkscape:original-d="m 125,250 c 77.47738,-21.1057 154.95477,-42.21141 232.43215,-63.31711"
       transform="matrix(-1,0,0,1,250,0)" />
  </g>
  <g
     inkscape:groupmode="layer"
     id="layer1"
     inkscape:label="main">
    <path
       style="display:inline;fill:#000000;stroke:#000000;stroke-width:0.0394633;stroke-dasharray:none"
       d="m 157.64091,240.57089 -28.92673,7.87616 1.24496,-0.73163 c 1.84724,-1.08558 101.65625,-59.32958 101.66653,-59.32796 0.005,7.6e-4 -0.2134,0.36863 -0.48496,0.81748 -8.34978,13.80083 -19.32049,25.854 -32.27851,35.46339 -3.54656,2.63005 -8.02749,5.58286 -11.4213,7.52632 l -0.87327,0.50008 z"
       id="path26" />
    <path
       style="display:inline;fill:#000000;stroke:#000000;stroke-width:0.0171628;stroke-dasharray:none"
       d="m 90.853216,244.27708 c -1.993245,-0.58403 -2.855174,-0.84847 -4.309856,-1.32227 -6.180992,-2.01319 -12.231077,-4.52874 -18.033455,-7.49807 -0.399625,-0.20451 -0.845641,-0.43482 -0.991146,-0.5118 l -0.264555,-0.13997 1.127468,0.30144 c 1.878347,0.5022 50.663808,13.79677 50.670438,13.80825 0.008,0.0136 -0.93365,-0.0366 -2.10174,-0.11208 -5.26581,-0.34021 -10.47872,-1.01418 -15.6878,-2.02827 -1.715977,-0.33406 -3.093421,-0.63284 -5.272763,-1.14371 -0.499772,-0.11715 -4.643754,-1.20912 -5.136591,-1.35352 z"
       id="path27" />
    <path
       style="fill:#000000;stroke:#000000;stroke-width:0.0641026;stroke-dasharray:none"
       d="m 188.2485,185.7691 c -59.55389,59.76795 -60.63749,60.85176 -60.44517,60.45674 0.1077,-0.22123 2.63823,-4.64155 5.62339,-9.82294 2.98516,-5.18139 7.14024,-12.39826 9.23352,-16.0375 71.57987,-124.444001 90.08981,-156.606845 90.13426,-156.617108 0.0999,-0.02305 1.85031,3.203638 3.16784,5.839445 6.99837,14.00063 11.28953,29.266963 12.61695,44.886333 0.34596,4.07078 0.56777,10.06808 0.38217,10.33326 -0.0396,0.0565 -27.36041,27.48934 -60.71296,60.96177 z"
       id="path21" />
    <path
       style="fill:#000000;stroke:#000000;stroke-width:0.0789266;stroke-dasharray:none"
       d="m 155.83026,131.44742 c -20.98392,79.25053 -30.27024,114.20348 -30.28012,113.97193 -0.008,-0.18369 -0.0127,-10.58215 -0.0107,-23.10771 0.002,-12.52555 0.002,-25.79316 -1.6e-4,-29.48357 -0.002,-3.69042 -4.9e-4,-47.41844 0.003,-97.173386 0.004,-49.754945 2.7e-4,-91.4194047 -0.008,-92.5876931 l -0.0153,-2.1241658 3.42026,0.108635 c 5.35797,0.170173 9.52003,0.5477304 14.74842,1.3378911 13.9691,2.1111325 27.94888,6.8057022 40.3747,13.5582788 1.12876,0.6134 2.04806,1.132965 2.04287,1.154582 -0.005,0.02162 -13.62906,51.476966 -30.27528,114.345208 z"
       id="path22" />
    <path
       style="fill:#000000;stroke:#000000;stroke-width:0.0789266;stroke-dasharray:none"
       d="m 89.902836,119.47653 c 13.526464,51.11368 26.593604,100.51444 29.038084,109.77948 l 4.4445,16.84552 -52.744133,-91.70196 C 41.632016,103.9635 17.888221,62.659472 17.877303,62.612856 c -0.01092,-0.04662 0.31695,-0.649254 0.728602,-1.33918 9.686314,-16.234325 23.395949,-30.39153 39.311583,-40.594952 1.606829,-1.030135 4.773287,-2.953842 4.932124,-2.996402 0.08165,-0.02188 0.317853,0.793231 1.279886,4.416711 0.648868,2.443947 12.24687,46.263821 25.773338,97.377497 z"
       id="path23" />
    <path
       style="fill:#000000;stroke:#000000;stroke-width:0.0558095;stroke-dasharray:none"
       d="m 121.23685,247.1816 c -0.223,-0.12602 -23.650619,-13.79346 -52.061377,-30.37208 -28.410759,-16.57862 -51.686093,-30.13639 -51.72296,-30.12836 -0.04358,0.009 -0.297791,-0.39729 -0.726409,-1.16233 -1.351479,-2.41227 -2.351212,-4.34773 -3.659797,-7.08528 C 6.0068257,163.66518 1.9466738,147.62394 1.1207454,131.23787 1.0473218,129.78116 0.98454216,127.862 0.97559352,126.80056 l -0.004866,-0.57718 0.60290848,0.62096 c 0.4948805,0.50969 27.158929,27.28199 42.223582,42.39499 19.985313,20.04946 77.088412,77.37802 77.419502,77.72518 l 0.42558,0.44623 z"
       id="path24" />
  </g>
</svg>
